<?xml version="1.0" encoding="UTF-8" standalone="no"?>
<!-- Created with Inkscape (http://www.inkscape.org/) -->

<svg
   width="205.74954mm"
   height="143.2993mm"
   viewBox="0 0 205.74954 143.2993"
   version="1.1"
   id="svg1"
   xml:space="preserve"
   xmlns:xlink="http://www.w3.org/1999/xlink"
   xmlns="http://www.w3.org/2000/svg"
   xmlns:svg="http://www.w3.org/2000/svg"><defs
     id="defs1"><linearGradient
       id="linearGradient84"><stop
         style="stop-color:#0bf700;stop-opacity:1;"
         offset="0"
         id="stop83" /><stop
         style="stop-color:#ffffff;stop-opacity:0;"
         offset="1"
         id="stop84" /></linearGradient><linearGradient
       id="linearGradient82"><stop
         style="stop-color:#0bf700;stop-opacity:1;"
         offset="0"
         id="stop81" /><stop
         style="stop-color:#ffffff;stop-opacity:0;"
         offset="1"
         id="stop82" /></linearGradient><linearGradient
       id="linearGradient80"><stop
         style="stop-color:#0bf700;stop-opacity:1;"
         offset="0"
         id="stop79" /><stop
         style="stop-color:#ffffff;stop-opacity:0;"
         offset="1"
         id="stop80" /></linearGradient><filter
       style="color-interpolation-filters:sRGB"
       id="filter76"
       x="-0.26088682"
       y="-0.099153114"
       width="1.5217736"
       height="1.1983062"><feGaussianBlur
         stdDeviation="1.3181165"
         id="feGaussianBlur76" /></filter><linearGradient
       xlink:href="#linearGradient82"
       id="linearGradient74"
       gradientUnits="userSpaceOnUse"
       gradientTransform="translate(-873.6121,-632.14298)"
       x1="990.26477"
       y1="643.1391"
       x2="943.35303"
       y2="694.25616" /><linearGradient
       xlink:href="#linearGradient84"
       id="linearGradient78"
       gradientUnits="userSpaceOnUse"
       gradientTransform="translate(-887.82947,-661.70229)"
       x1="986.5332"
       y1="748.88306"
       x2="972.69214"
       y2="763.19275" /><linearGradient
       xlink:href="#linearGradient80"
       id="linearGradient79"
       gradientUnits="userSpaceOnUse"
       gradientTransform="translate(-951.04941,-659.79683)"
       x1="990.26477"
       y1="643.1391"
       x2="943.35303"
       y2="694.25616" /></defs><path
     id="path51"
     style="font-variation-settings:normal;mix-blend-mode:normal;vector-effect:none;fill:url(#linearGradient78);fill-opacity:1;stroke:none;stroke-width:1.64;stroke-linecap:butt;stroke-linejoin:round;stroke-miterlimit:4;stroke-dasharray:none;stroke-dashoffset:0;stroke-opacity:1;-inkscape-stroke:none;paint-order:markers fill stroke;filter:url(#filter76);stop-color:#000000"
     d="m 92.62563,77.802594 -6.20634,16.9705 c 2.28132,5.737196 5.20089,13.081796 5.93762,14.934496 l 6.18825,-16.805696 z" /><path
     id="path33"
     style="font-variation-settings:normal;mix-blend-mode:normal;vector-effect:none;fill:url(#linearGradient79);fill-opacity:1;stroke:none;stroke-width:1.64;stroke-linecap:butt;stroke-linejoin:round;stroke-miterlimit:4;stroke-dasharray:none;stroke-dashoffset:0;stroke-opacity:1;-inkscape-stroke:none;paint-order:markers fill stroke;filter:url(#filter76);stop-color:#000000"
     d="m 200.92502,22.766794 c 0,0 -56.7758,0.42419 -57.3655,0.48008 -4.0343,0.38231 -5.8106,2.0303 -6.9247,2.96622 -1.0023,0.84205 -2.6052,3.01983 -4.4416,6.22495 -0.2575,0.44943 -20.69491,55.78525 -20.69491,55.78525 l -11.8008,-29.15897 -6.8201,18.20517 20.3252,52.968796 32.78411,-92.963856 c 0,0 41.4973,0.7558 41.7908,0.74363 2.249,-0.0933 2.9096,-0.57838 3.4721,-0.86868 1.0464,-0.54008 1.9662,-1.32865 2.8133,-2.31046 2.4606,-2.85209 4.3072,-7.33241 6.8621,-12.07213 z" /><path
     id="path55"
     style="fill:none;fill-opacity:1;stroke:#000000;stroke-width:1.10363;paint-order:markers fill stroke"
     d="m 92.62577,77.809794 -6.20634,16.9706 c 2.28132,5.737096 5.20089,13.081696 5.93762,14.934396 L 98.5453,92.909194 Z" /><path
     id="path61"
     style="fill:none;fill-opacity:0.652286;stroke:#fafafa;stroke-width:0.499999;paint-order:markers fill stroke"
     d="m 88.68544,48.711844 -10.0614,27.51205 c 3.36073,8.4585 3.93952,9.9162 6.75307,16.9922 l 16.27498,-44.50425 z" /><path
     id="path66"
     style="fill:none;fill-opacity:1;stroke:#000000;stroke-width:1.63964;paint-order:markers fill stroke"
     d="m 201.19382,22.053554 c 0,0 -56.7758,0.42419 -57.3655,0.48008 -4.0343,0.38231 -5.8106,2.0303 -6.9247,2.96622 -1.0023,0.84205 -2.6052,3.01983 -4.4416,6.22495 -0.2575,0.44943 -20.69486,55.78519 -20.69486,55.78519 l -11.80083,-29.15891 -6.82007,18.20521 20.32519,52.968696 32.78407,-92.963796 c 0,0 41.4973,0.7558 41.7908,0.74363 2.249,-0.0933 2.9096,-0.57838 3.4721,-0.86868 1.0464,-0.54008 1.9662,-1.32865 2.8133,-2.31046 2.4606,-2.85209 4.3072,-7.33241 6.8621,-12.07213 z" /><path
     id="path67"
     style="fill:url(#linearGradient74);fill-opacity:1;stroke:none;stroke-width:1.64;stroke-linecap:butt;stroke-linejoin:round;stroke-dasharray:none;paint-order:markers fill stroke;filter:url(#filter76)"
     d="m 73.94377,35.667324 c -0.7956,1.64922 0.5824,7.10907 3.2887,7.8636 -2.9987,0.21232 -4.2231,-5.78905 -5.6648,-9.87433 l -1.7337,-2.24999 c -1.1141,-0.93592 -3.5814,-2.03974 -7.5727,-1.77302 -0.591,0.0395 -57.36598,-0.30851 -57.36598,-0.30851 2.55488,4.73972 4.40199,9.22055 6.86263,12.07265 0.84706,0.98181 1.76681,1.77038 2.81326,2.31045 0.5625,0.29031 1.22304,0.77537 3.47214,0.86868 0.29345,0.0122 35.98335,-0.74362 35.98335,-0.74362 l 37.0044,94.308456 12.8752,-30.4472 -4.9671,-12.979596 -6.8663,18.647396 c 0,0 -28.1479,-70.761056 -28.2892,-71.261766 0.1915,0.0299 0.3812,0.0415 0.5716,0.0584 l 12.8342,30.82117 c 0.7785,-59.01343 39.0718,-67.0636599 81.40295,-59.1228 -51.39685,-23.2360499 -77.31135,6.60139 -84.64865,21.81004 z" /><path
     id="path68"
     style="fill:none;fill-opacity:1;stroke:#000000;stroke-width:1.64;stroke-linecap:butt;stroke-linejoin:round;stroke-dasharray:none;paint-order:markers fill stroke"
     d="m 74.24911,35.763944 c -0.79565,1.64922 0.5824,7.10907 3.28868,7.8636 -2.99873,0.21232 -4.22313,-5.78905 -5.66477,-9.87433 l -1.73374,-2.24999 c -1.1141,-0.93592 -3.58138,-2.03974 -7.57267,-1.77302 -0.59101,0.0395 -57.366,-0.30851 -57.366,-0.30851 2.55488,4.73972 4.40199,9.22055 6.86263,12.07265 0.84706,0.98181 1.76681,1.77038 2.81326,2.31045 0.5625,0.29031 1.22304,0.77537 3.47214,0.86868 0.29345,0.0122 35.98334,-0.74362 35.98334,-0.74362 l 37.00445,94.308436 12.87519,-30.4472 -4.96714,-12.979596 -6.86625,18.647396 c 0,0 -28.14794,-70.761036 -28.28923,-71.261746 0.19144,0.0299 0.3812,0.0415 0.57154,0.0584 l 12.83424,30.82115 c 0.77853,-59.01341 39.0718,-67.0636399 81.40294,-59.12278 -51.3968,-23.2360499 -77.31131,6.60139 -84.64861,21.81004 z" /><path
     id="path69"
     style="fill:none;fill-opacity:0.652286;stroke:#000000;stroke-width:1.63964;paint-order:markers fill stroke"
     d="m 84.53515,62.036574 -5.38194,14.71642 c 3.36073,8.4586 3.93952,9.9162 6.75307,16.9923 l 16.27498,-44.50428 a 19.021858,19.021858 0 0 0 -17.64611,12.79556 z" /></svg>
