<?xml version="1.0" encoding="UTF-8" standalone="no"?>
<!-- Created with Inkscape (http://www.inkscape.org/) -->

<svg
   width="205.56517mm"
   height="190.91943mm"
   viewBox="0 0 205.56517 190.91942"
   version="1.1"
   id="svg1"
   xml:space="preserve"
   xmlns:xlink="http://www.w3.org/1999/xlink"
   xmlns="http://www.w3.org/2000/svg"
   xmlns:svg="http://www.w3.org/2000/svg"><defs
     id="defs1"><linearGradient
       id="linearGradient71"><stop
         style="stop-color:#0bf700;stop-opacity:1;"
         offset="0"
         id="stop71" /><stop
         style="stop-color:#000000;stop-opacity:0;"
         offset="1"
         id="stop72" /></linearGradient><rect
       x="-1446.6931"
       y="305.94247"
       width="663.11188"
       height="167.12563"
       id="rect45" /><rect
       x="-1446.6931"
       y="305.94247"
       width="663.11188"
       height="167.12563"
       id="rect46" /><linearGradient
       xlink:href="#linearGradient71"
       id="linearGradient75"
       gradientUnits="userSpaceOnUse"
       x1="990.26477"
       y1="643.1391"
       x2="943.35303"
       y2="694.25616"
       gradientTransform="translate(-0.30531653,-0.09661492)" /><filter
       style="color-interpolation-filters:sRGB"
       id="filter76"
       x="-0.26088682"
       y="-0.099153008"
       width="1.5217736"
       height="1.198306"><feGaussianBlur
         stdDeviation="1.3181165"
         id="feGaussianBlur76" /></filter><linearGradient
       xlink:href="#linearGradient71"
       id="linearGradient77"
       gradientUnits="userSpaceOnUse"
       gradientTransform="translate(-14.522694,-29.655925)"
       x1="986.5332"
       y1="748.88306"
       x2="972.69214"
       y2="763.19275" /><rect
       x="-1446.6931"
       y="305.94247"
       width="663.11188"
       height="167.12563"
       id="rect27" /><filter
       style="color-interpolation-filters:sRGB"
       id="filter27"
       x="-0.037281519"
       y="-0.3807842"
       width="1.074563"
       height="1.7615684"><feGaussianBlur
         stdDeviation="9.4638262"
         id="feGaussianBlur27" /></filter><linearGradient
       xlink:href="#linearGradient71"
       id="linearGradient86"
       gradientUnits="userSpaceOnUse"
       gradientTransform="translate(-77.742629,-27.750458)"
       x1="990.26477"
       y1="643.1391"
       x2="943.35303"
       y2="694.25616" /></defs><g
     id="layer1"
     transform="translate(-873.45,-624.1808)"><text
       xml:space="preserve"
       transform="matrix(0.26458333,0,0,0.26458333,1278.1412,696.66394)"
       id="text25"
       style="font-style:normal;font-variant:normal;font-weight:normal;font-stretch:normal;font-size:48px;line-height:normal;font-family:'Cyborg Punk';-inkscape-font-specification:'Cyborg Punk, Normal';font-variant-ligatures:normal;font-variant-caps:normal;font-variant-numeric:normal;font-variant-east-asian:normal;font-variation-settings:normal;text-decoration-color:#000000;white-space:pre;shape-inside:url(#rect27);display:inline;opacity:1;mix-blend-mode:normal;vector-effect:none;fill:#0bf700;fill-opacity:1;stroke:none;stroke-width:6.19843;stroke-linecap:butt;stroke-linejoin:round;stroke-miterlimit:4;stroke-dasharray:none;stroke-dashoffset:0;stroke-opacity:1;-inkscape-stroke:none;paint-order:markers fill stroke;filter:url(#filter27);stop-color:#000000;stop-opacity:1"><tspan
         x="-1446.6934"
         y="349.27091"
         id="tspan6"><tspan
           style="vector-effect:none;filter:url(#filter76);stop-color:#000000;stop-opacity:1"
           id="tspan5">Wittness Tech</tspan></tspan></text><text
       xml:space="preserve"
       transform="matrix(0.26458333,0,0,0.26458333,1278.1412,696.66394)"
       id="text44"
       style="font-style:normal;font-variant:normal;font-weight:normal;font-stretch:normal;font-size:48px;line-height:normal;font-family:'Cyborg Punk';-inkscape-font-specification:'Cyborg Punk, Normal';font-variant-ligatures:normal;font-variant-caps:normal;font-variant-numeric:normal;font-variant-east-asian:normal;text-decoration-color:#000000;white-space:pre;shape-inside:url(#rect45);display:inline;fill:#000000;fill-opacity:1;stroke:#fafafa;stroke-width:1.26783;stroke-opacity:1;paint-order:markers fill stroke"><tspan
         x="-1446.6934"
         y="349.27091"
         id="tspan7">Wittness Tech</tspan></text><path
       id="path28-5"
       style="font-variation-settings:normal;opacity:1;mix-blend-mode:normal;vector-effect:none;fill:url(#linearGradient86);fill-opacity:1;stroke:none;stroke-width:1.64;stroke-linecap:butt;stroke-linejoin:round;stroke-miterlimit:4;stroke-dasharray:none;stroke-dashoffset:0;stroke-opacity:1;-inkscape-stroke:none;paint-order:markers fill stroke;filter:url(#filter76);stop-color:#000000;stop-opacity:1"
       d="m 1074.2318,654.81316 c 0,0 -56.7758,0.42419 -57.3655,0.48008 -4.0343,0.38231 -5.8106,2.0303 -6.9247,2.96622 -1.0023,0.84205 -2.6052,3.01983 -4.4416,6.22495 -0.2575,0.44943 -20.69491,55.78521 -20.69491,55.78521 l -11.8008,-29.15893 -6.8201,18.20519 20.3252,52.96876 32.78411,-92.96384 c 0,0 41.4973,0.7558 41.7908,0.74363 2.249,-0.0933 2.9096,-0.57838 3.4721,-0.86868 1.0464,-0.54008 1.9662,-1.32865 2.8133,-2.31046 2.4606,-2.85209 4.3072,-7.33241 6.8621,-12.07213 z" /><path
       id="path38"
       style="font-variation-settings:normal;opacity:1;mix-blend-mode:normal;vector-effect:none;fill:url(#linearGradient77);fill-opacity:1;stroke:none;stroke-width:1.64;stroke-linecap:butt;stroke-linejoin:round;stroke-miterlimit:4;stroke-dasharray:none;stroke-dashoffset:0;stroke-opacity:1;-inkscape-stroke:none;paint-order:markers fill stroke;filter:url(#filter76);stop-color:#000000;stop-opacity:1"
       d="m 965.93241,709.84896 -6.20634,16.97054 c 2.28132,5.73711 5.20089,13.08179 5.93762,14.93449 l 6.18825,-16.80569 z" /><path
       id="path488"
       style="fill:none;fill-opacity:1;stroke:#fafafa;stroke-width:1.10363;paint-order:markers fill stroke"
       d="m 965.93255,709.85617 -6.20634,16.97054 c 2.28132,5.73711 5.20089,13.08179 5.93762,14.93449 l 6.18825,-16.80569 z" /><path
       id="path28"
       style="fill:none;fill-opacity:1;stroke:#fafafa;stroke-width:1.63964;paint-order:markers fill stroke"
       d="m 1074.5006,654.09992 c 0,0 -56.7758,0.42419 -57.3655,0.48008 -4.0343,0.38231 -5.8106,2.0303 -6.9247,2.96622 -1.0023,0.84205 -2.6052,3.01983 -4.4416,6.22495 -0.2575,0.44943 -20.69486,55.78521 -20.69486,55.78521 l -11.80083,-29.15893 -6.82007,18.20519 20.32519,52.96876 32.78407,-92.96384 c 0,0 41.4973,0.7558 41.7908,0.74363 2.249,-0.0933 2.9096,-0.57838 3.4721,-0.86868 1.0464,-0.54008 1.9662,-1.32865 2.8133,-2.31046 2.4606,-2.85209 4.3072,-7.33241 6.8621,-12.07213 z" /><path
       id="path74"
       style="fill:url(#linearGradient75);fill-opacity:1;stroke:none;stroke-width:1.64;stroke-linecap:butt;stroke-linejoin:round;stroke-dasharray:none;paint-order:markers fill stroke;filter:url(#filter76)"
       d="m 947.25055,667.71369 c -0.7956,1.64922 0.5824,7.10907 3.2887,7.8636 -2.9987,0.21232 -4.2231,-5.78905 -5.6648,-9.87433 l -1.7337,-2.24999 c -1.1141,-0.93592 -3.5814,-2.03974 -7.5727,-1.77302 -0.591,0.0395 -57.36598,-0.30851 -57.36598,-0.30851 2.55488,4.73972 4.40199,9.22055 6.86263,12.07265 0.84706,0.98181 1.76681,1.77038 2.81326,2.31045 0.5625,0.29031 1.22304,0.77537 3.47214,0.86868 0.29345,0.0122 35.98335,-0.74362 35.98335,-0.74362 l 37.0044,94.30845 12.8752,-30.44723 -4.9671,-12.97957 -6.8663,18.64743 c 0,0 -28.1479,-70.76108 -28.2892,-71.26179 0.1915,0.0299 0.3812,0.0415 0.5716,0.0584 l 12.8342,30.82119 c 0.7785,-59.01345 39.0718,-67.06368 81.40295,-59.12282 -51.39685,-23.23605 -77.31135,6.60139 -84.64865,21.81004 z" /><path
       id="path43"
       style="fill:none;fill-opacity:1;stroke:#fafafa;stroke-width:1.64;stroke-linecap:butt;stroke-linejoin:round;stroke-dasharray:none;paint-order:markers fill stroke"
       d="m 947.55589,667.81031 c -0.79565,1.64922 0.5824,7.10907 3.28868,7.8636 -2.99873,0.21232 -4.22313,-5.78905 -5.66477,-9.87433 l -1.73374,-2.24999 c -1.1141,-0.93592 -3.58138,-2.03974 -7.57267,-1.77302 -0.59101,0.0395 -57.366,-0.30851 -57.366,-0.30851 2.55488,4.73972 4.40199,9.22055 6.86263,12.07265 0.84706,0.98181 1.76681,1.77038 2.81326,2.31045 0.5625,0.29031 1.22304,0.77537 3.47214,0.86868 0.29345,0.0122 35.98334,-0.74362 35.98334,-0.74362 l 37.00445,94.30845 12.87519,-30.44723 -4.96714,-12.97957 -6.86625,18.64743 c 0,0 -28.14794,-70.76108 -28.28923,-71.26179 0.19144,0.0299 0.3812,0.0415 0.57154,0.0584 l 12.83424,30.82119 c 0.77853,-59.01345 39.0718,-67.06368 81.40294,-59.12282 -51.3968,-23.23605 -77.31131,6.60139 -84.64861,21.81004 z" /><path
       id="path44"
       style="fill:none;fill-opacity:0.652286;stroke:#fafafa;stroke-width:1.63964;paint-order:markers fill stroke"
       d="m 956.26966,698.38219 -3.80967,10.41721 c 3.36073,8.45853 3.93952,9.9162 6.75307,16.99224 l 16.27498,-44.50426 a 22.446351,22.446351 138.34681 0 0 -19.21838,17.09481 z" /><text
       xml:space="preserve"
       transform="matrix(0.26458333,0,0,0.26458333,1277.7774,716.0673)"
       id="text45"
       style="font-style:normal;font-variant:normal;font-weight:normal;font-stretch:normal;font-size:48px;line-height:normal;font-family:NEXTSTEP;-inkscape-font-specification:'NEXTSTEP, Normal';font-variant-ligatures:normal;font-variant-caps:normal;font-variant-numeric:normal;font-variant-east-asian:normal;text-decoration-color:#000000;letter-spacing:15.37px;white-space:pre;shape-inside:url(#rect46);display:inline;fill:#fafafa;fill-opacity:1;stroke:#fafafa;stroke-width:0.85058;stroke-opacity:1;paint-order:markers fill stroke"><tspan
         x="-1446.6934"
         y="349.84872"
         id="tspan8">a software co</tspan></text></g></svg>
